<svg width="23" height="16" viewBox="0 0 23 16" fill="none" xmlns="http://www.w3.org/2000/svg">
<path d="M16.337 9.13C17.707 10.06 18.667 11.32 18.667 13V16H22.667V13C22.667 10.82 19.097 9.53 16.337 9.13Z" fill="white"/>
<path d="M14.667 8C16.877 8 18.667 6.21 18.667 4C18.667 1.79 16.877 0 14.667 0C14.197 0 13.757 0.0999998 13.337 0.24C14.167 1.27 14.667 2.58 14.667 4C14.667 5.42 14.167 6.73 13.337 7.76C13.757 7.9 14.197 8 14.667 8Z" fill="white"/>
<path d="M8.66699 8C10.877 8 12.667 6.21 12.667 4C12.667 1.79 10.877 0 8.66699 0C6.45699 0 4.66699 1.79 4.66699 4C4.66699 6.21 6.45699 8 8.66699 8ZM8.66699 2C9.76699 2 10.667 2.9 10.667 4C10.667 5.1 9.76699 6 8.66699 6C7.56699 6 6.66699 5.1 6.66699 4C6.66699 2.9 7.56699 2 8.66699 2Z" fill="white"/>
<path d="M8.66699 9C5.99699 9 0.666992 10.34 0.666992 13V16H16.667V13C16.667 10.34 11.337 9 8.66699 9ZM14.667 14H2.66699V13.01C2.86699 12.29 5.96699 11 8.66699 11C11.367 11 14.467 12.29 14.667 13V14Z" fill="white"/>
</svg>
