<svg width="24" height="20" viewBox="0 0 24 20" fill="none" xmlns="http://www.w3.org/2000/svg">
<path d="M12.9491 0.751863L7.4091 6.29186C7.0391 6.66186 6.8291 7.17186 6.8291 7.70186V17.6919C6.8291 18.7919 7.7291 19.6919 8.8291 19.6919H17.8291C18.6291 19.6919 19.3491 19.2119 19.6691 18.4819L22.9291 10.8719C23.7691 8.89186 22.3191 6.69186 20.1691 6.69186H14.5191L15.4691 2.11186C15.5691 1.61186 15.4191 1.10186 15.0591 0.741863C14.4691 0.161863 13.5291 0.161863 12.9491 0.751863ZM2.8291 19.6919C3.9291 19.6919 4.8291 18.7919 4.8291 17.6919V9.69186C4.8291 8.59186 3.9291 7.69186 2.8291 7.69186C1.7291 7.69186 0.829102 8.59186 0.829102 9.69186V17.6919C0.829102 18.7919 1.7291 19.6919 2.8291 19.6919Z" fill="#E8F0FF"/>
</svg>
